<svg width="23" height="54" viewBox="0 0 23 54" fill="none" xmlns="http://www.w3.org/2000/svg">
<g clip-path="url(#clip0)">
<path d="M10.2348 27.1636C9.74902 26.8825 9.29715 26.624 8.84528 26.3429C8.68713 26.2417 8.63065 26.3429 8.54027 26.4328C7.30894 27.6583 6.0889 28.8838 4.85756 30.1093C3.86346 31.1099 2.86935 32.0993 1.86395 33.0887C1.75098 33.2011 1.6945 33.3135 1.6945 33.4822C1.60413 37.1586 1.50246 40.8463 1.40079 44.5228C1.33301 47.1311 1.25393 49.7508 1.17485 52.3591C1.16356 52.7189 1.14096 53.0899 1.14096 53.4497C1.12967 53.9107 1.12967 53.9107 0.632613 54.0006C0.598723 53.2586 0.564833 52.5278 0.530943 51.7857C0.429273 49.2448 0.361493 46.7151 0.214637 44.1742C0 40.3179 0.0112967 36.4503 0 32.5827C0 32.2679 0.10167 32.0656 0.316306 31.8519C2.51916 29.7383 4.722 27.6021 6.92485 25.4772C6.97004 25.4322 7.01523 25.3872 7.08301 25.3085C6.74411 25.1062 6.4165 24.915 6.0889 24.7126C4.14587 23.5659 2.20285 22.4191 0.259823 21.2835C0.0677799 21.1711 0.0112967 21.0587 0.0112967 20.8451C-0.03389 17.9106 0.180747 14.9875 0.327603 12.0531C0.40668 10.4116 0.497053 8.75887 0.57613 7.11739C0.57613 7.00496 0.587426 6.89253 0.598723 6.7801C0.61002 6.66767 0.700393 6.64519 0.77947 6.63395C0.903733 6.63395 0.858546 6.74638 0.858546 6.81383C0.915029 7.70203 0.960216 8.59022 1.0167 9.47842C1.15226 11.9519 1.27652 14.4366 1.40079 16.91C1.44597 17.8882 1.50246 18.8551 1.53635 19.8332C1.54764 20.0243 1.61542 20.1368 1.77358 20.2267C3.91994 21.4634 6.06631 22.7114 8.21267 23.9594C8.35953 24.0493 8.4499 24.0493 8.56287 23.9256C8.86788 23.6221 9.18418 23.3298 9.50049 23.0262C9.72642 22.8126 9.72642 22.8126 9.44401 22.6552C7.51228 21.5534 5.58055 20.4516 3.64882 19.3498C3.51326 19.271 3.40029 19.1811 3.25344 19.1249C2.99361 19.0237 2.93713 18.8551 2.95972 18.5852C3.08399 17 3.18566 15.4147 3.28733 13.8182C3.43418 11.5471 3.58104 9.27604 3.7279 7.00496C3.75049 6.64519 3.79568 6.27417 3.79568 5.9144C3.79568 5.65581 3.97642 5.66705 4.13458 5.63332C4.24754 5.61084 4.21365 5.71202 4.21365 5.76824C4.24754 6.16174 4.28143 6.55524 4.30403 6.94875C4.46218 9.41096 4.62033 11.8844 4.77849 14.3466C4.84627 15.426 4.92534 16.5165 4.98183 17.5958C4.99312 17.7308 5.03831 17.8095 5.15128 17.8769C7.0943 19.0349 9.03733 20.193 10.9804 21.3622C11.1385 21.4634 11.2063 21.3735 11.308 21.2835C12.9912 19.6533 14.6744 18.0343 16.3463 16.4041C16.9902 15.7857 17.6228 15.1674 18.2667 14.549C18.3797 14.4478 18.4249 14.3354 18.4249 14.178C18.5152 11.0749 18.6169 7.96062 18.7186 4.85756C18.7525 3.68829 18.7976 2.51902 18.8315 1.34975C18.8428 1.06867 18.9558 0.956244 19.2269 0.933758C19.3851 0.922515 19.3399 1.03494 19.3399 1.1024C19.3738 1.61958 19.3964 2.12551 19.419 2.64269C19.498 4.554 19.5771 6.4653 19.6675 8.36536C19.7579 10.479 19.8482 12.5927 19.9499 14.7064C19.9612 14.9425 19.9047 15.0999 19.7353 15.2798C17.7922 17.2136 15.8492 19.1474 13.9062 21.0812C13.4882 21.4972 13.0476 21.8794 12.5732 22.3179C13.138 22.6552 13.6012 22.925 14.0643 23.2173C14.1999 23.296 14.2564 23.2398 14.3468 23.1611C15.194 22.3291 16.0526 21.4972 16.8998 20.6539C18.2667 19.316 19.6336 17.9669 21.0005 16.6289C21.136 16.5053 21.1812 16.3704 21.1925 16.1905C21.3055 12.7164 21.4185 9.24232 21.5427 5.76824C21.5992 3.9806 21.667 2.19297 21.7348 0.405338C21.7461 0.191722 22.0172 -0.021895 22.2318 0.0230769C22.3448 0.0455628 22.3109 0.135507 22.3109 0.202964C22.3674 1.29353 22.4239 2.39534 22.4804 3.48591C22.6046 5.95937 22.7176 8.44407 22.8757 10.9175C23.0113 13.0424 23 15.1674 23 17.2923C23 17.416 22.9548 17.5059 22.8757 17.5846C20.639 19.777 18.4136 21.9694 16.1768 24.1505C16.0074 24.3191 16.0187 24.3754 16.222 24.4878C18.4136 25.792 20.6051 27.1074 22.7967 28.4116C22.9435 28.5015 23 28.5915 23 28.7601C22.9887 31.1549 23.0226 33.5609 22.9887 35.9556C22.9435 38.2155 22.8193 40.4641 22.7402 42.7239C22.6837 44.0955 22.6498 45.4784 22.5933 46.8501C22.582 46.9962 22.6724 47.2661 22.4239 47.2548C22.2205 47.2436 22.3335 46.9962 22.3335 46.8613C22.1866 43.1511 22.0398 39.4297 21.8929 35.7195C21.8251 33.8082 21.7574 31.8969 21.7009 29.9856C21.6896 29.7045 21.5992 29.5584 21.3507 29.4235C19.2269 28.2205 17.1031 27.0062 14.9907 25.792C14.7647 25.6571 14.6179 25.6571 14.4258 25.8594C14.1434 26.1855 13.8271 26.4778 13.5108 26.7701C13.3978 26.8825 13.3752 26.9388 13.5334 27.0287C15.5216 28.1755 17.5098 29.3335 19.5093 30.4803C20.1419 30.8401 20.1306 30.8288 20.0968 31.5709C20.0177 33.0212 19.9725 34.4716 19.9047 35.9219C19.7579 39.3285 19.611 42.7351 19.4641 46.1418C19.4416 46.7601 19.4077 47.3785 19.3964 47.9968C19.3964 48.1318 19.3625 48.2217 19.2156 48.2667C19.0575 48.3117 19.001 48.2892 19.001 48.1093C18.9332 46.3554 18.8541 44.6127 18.775 42.8588C18.6282 39.5196 18.4813 36.1805 18.3458 32.8413C18.3458 32.7851 18.3345 32.7289 18.3458 32.6727C18.47 32.0543 18.1424 31.762 17.6341 31.4697C15.8266 30.4466 14.0417 29.3785 12.2569 28.3216C12.0874 28.2205 12.0083 28.2542 11.8841 28.3779C9.63605 30.5927 7.39931 32.8076 5.12868 35.0112C4.84627 35.2923 4.722 35.5621 4.71071 35.9556C4.59774 39.6546 4.47348 43.3535 4.34921 47.0524C4.28143 48.93 4.21365 50.7963 4.14587 52.6739C4.13458 52.91 3.89735 53.1124 3.67141 53.0787C3.53585 53.0562 3.58104 52.955 3.58104 52.8763C3.53585 52.123 3.50196 51.381 3.46807 50.6277C3.30992 47.2548 3.15177 43.8707 2.99361 40.4978C2.90324 38.609 2.81287 36.7201 2.7225 34.8313C2.7112 34.629 2.77898 34.4828 2.92583 34.3479C5.32073 32.0093 7.70432 29.6708 10.0879 27.3323C10.1218 27.2873 10.167 27.2311 10.2348 27.1636Z" fill="#FE0C9C"/>
</g>
<defs>
<clipPath id="clip0">
<rect width="23" height="54" fill="white"/>
</clipPath>
</defs>
</svg>
